<?xml version="1.0" encoding="UTF-8" standalone="no" ?>
<!DOCTYPE svg PUBLIC "-//W3C//DTD SVG 1.1//EN" "http://www.w3.org/Graphics/SVG/1.1/DTD/svg11.dtd">
<svg xmlns="http://www.w3.org/2000/svg" xmlns:xlink="http://www.w3.org/1999/xlink" version="1.1" width="500" height="500" viewBox="0 0 500 500" xml:space="preserve">
<desc>Created with Fabric.js 5.3.0</desc>
<defs>
</defs>
<g transform="matrix(0.6528080243 0 0 0.6528080243 611.9204271174 170.5192307692)" id="TiCiE8sF4AZMi4_WbkHaD"  >
<path style="stroke: rgb(59,40,53); stroke-width: 0; stroke-dasharray: none; stroke-linecap: butt; stroke-dashoffset: 0; stroke-linejoin: miter; stroke-miterlimit: 4; fill: rgb(167,167,167); fill-rule: nonzero; opacity: 1;"  transform=" translate(0, 0)" d="M 0 -8.17308 C 4.51154 -8.17308 8.17308 -4.51154 8.17308 0 C 8.17308 4.51154 4.51154 8.17308 0 8.17308 C -4.51154 8.17308 -8.17308 4.51154 -8.17308 0 C -8.17308 -4.51154 -4.51154 -8.17308 0 -8.17308 z" stroke-linecap="round" />
</g>
<g transform="matrix(0.4728008991 0 0 0.4728008991 266.0410274809 204.3716069384)" id="VJOBoVLr1CN8hPeR03rh9"  >
<g style=""   >
		<g transform="matrix(0.9314447713 0 0 0.9314447764 0 5.937e-7)" id="BvdtPTGXGK4KPXCQUYxYQ"  >
<path style="stroke: rgb(78,60,78); stroke-width: 0; stroke-dasharray: none; stroke-linecap: butt; stroke-dashoffset: 0; stroke-linejoin: miter; stroke-miterlimit: 4; fill: rgb(246,205,87); fill-opacity: 0.2; fill-rule: nonzero; opacity: 1;"  transform=" translate(0.000005, -0.000005)" d="M -128.83212 -128.83211 L 128.83210999999997 -128.83211 L 171.77614999999997 128.83211999999997 L -171.77616 128.83211999999997 z" stroke-linecap="round" />
</g>
		<g transform="matrix(0.8337078664 0 0 0.9977527965 0 0)" id="RqOASX8o3eTSHwJFjHOi4"  >
<path style="stroke: rgb(162,238,4); stroke-width: 0; stroke-dasharray: none; stroke-linecap: butt; stroke-dashoffset: 0; stroke-linejoin: miter; stroke-miterlimit: 4; fill: rgb(246,205,87); fill-opacity: 0.3; fill-rule: nonzero; opacity: 1;"  transform=" translate(0, 0)" d="M -120.59445 -120.27027 L 119.94609 -120.27027 L 167.92453 120.27027 L -167.92453 120.27027 z" stroke-linecap="round" />
</g>
</g>
</g>
</svg>